<svg width="15" height="15" viewBox="0 0 15 15" fill="none" xmlns="http://www.w3.org/2000/svg">
<path d="M8.25 6.81111C8.44891 6.81111 8.63968 6.89715 8.78033 7.05031C8.92098 7.20346 9 7.41118 9 7.62778V7.82242C8.78033 8.7272 7.9475 10 6.5 10C5.0525 10 4.21967 8.82442 4 7.82242V7.62778C4 7.41118 4.07902 7.20346 4.21967 7.05031C4.36032 6.89715 4.55109 6.81111 4.75 6.81111H8.25ZM6.5 3C6.69698 3 6.89204 3.04225 7.07403 3.12433C7.25601 3.20641 7.42137 3.32672 7.56066 3.47839C7.69995 3.63006 7.81044 3.81012 7.88582 4.00828C7.9612 4.20645 8 4.41884 8 4.63333C8 4.84783 7.9612 5.06022 7.88582 5.25838C7.81044 5.45655 7.69995 5.63661 7.56066 5.78827C7.42137 5.93994 7.25601 6.06025 7.07403 6.14234C6.89204 6.22442 6.69698 6.26667 6.5 6.26667C6.10218 6.26667 5.72064 6.09458 5.43934 5.78827C5.15804 5.48196 5 5.06652 5 4.63333C5 4.20015 5.15804 3.7847 5.43934 3.47839C5.72064 3.17208 6.10218 3 6.5 3Z" fill="#1E293B" fill-opacity="0.5"/>
<path d="M14 14L10.8634 10.8634M10.8634 10.8634C11.3999 10.3269 11.8255 9.68995 12.1159 8.98895C12.4063 8.28795 12.5557 7.53662 12.5557 6.77786C12.5557 6.0191 12.4063 5.26777 12.1159 4.56677C11.8255 3.86577 11.3999 3.22882 10.8634 2.6923C10.3269 2.15577 9.68995 1.73018 8.98895 1.43981C8.28795 1.14945 7.53662 1 6.77786 1C6.0191 1 5.26777 1.14945 4.56677 1.43981C3.86577 1.73018 3.22882 2.15577 2.6923 2.6923C1.60874 3.77586 1 5.24548 1 6.77786C1 8.31024 1.60874 9.77987 2.6923 10.8634C3.77586 11.947 5.24548 12.5557 6.77786 12.5557C8.31024 12.5557 9.77987 11.947 10.8634 10.8634Z" stroke="#1E293B" stroke-opacity="0.5" stroke-width="1.5" stroke-linecap="round" stroke-linejoin="round"/>
</svg>
