<svg width="26" height="26" viewBox="0 0 26 26" fill="none" xmlns="http://www.w3.org/2000/svg">
<path d="M13 25C11.4241 25 9.86371 24.6896 8.4078 24.0866C6.95189 23.4835 5.62902 22.5996 4.51472 21.4853C3.40042 20.371 2.5165 19.0481 1.91345 17.5922C1.31039 16.1363 1 14.5759 1 13C1 11.4241 1.31039 9.86371 1.91345 8.4078C2.5165 6.95189 3.40042 5.62902 4.51472 4.51472C5.62902 3.40042 6.95189 2.5165 8.4078 1.91345C9.86371 1.31039 11.4241 1 13 1C16.1826 1 19.2348 2.26428 21.4853 4.51472C23.7357 6.76516 25 9.8174 25 13C25 16.1826 23.7357 19.2348 21.4853 21.4853C19.2348 23.7357 16.1826 25 13 25ZM13 25V16.4286H10.4286C9.29193 16.4286 8.20184 15.977 7.39811 15.1733C6.59439 14.3696 6.14286 13.2795 6.14286 12.1429C6.14286 11.0062 6.59439 9.91613 7.39811 9.1124C8.20184 8.30867 9.29193 7.85714 10.4286 7.85714H13.3326C14.8641 7.85697 16.3376 8.44334 17.4503 9.49577C18.563 10.5482 19.2304 11.9868 19.3154 13.516L19.8571 23.2857M12.1429 16.4286H12.7977C13.972 16.4286 15.0469 15.7651 15.5714 14.7143M7 11.2857H8.71429M10.4286 11.2857H12.1429" stroke="#1E293B" stroke-opacity="0.4" stroke-width="2"/>
</svg>
