<svg width="24" height="24" viewBox="0 0 24 24" fill="none" xmlns="http://www.w3.org/2000/svg">
<g clip-path="url(#clip0_553_220)">
<path d="M8.8 11.2H15.2V9.6H8.8V11.2ZM16 12V16.8H17.6V12H16ZM15.2 17.6H8.8V19.2H15.2V17.6ZM8 16.8V12H6.4V16.8H8ZM8.8 17.6C8.58783 17.6 8.38434 17.5157 8.23431 17.3657C8.08429 17.2157 8 17.0122 8 16.8H6.4C6.4 17.4365 6.65286 18.047 7.10294 18.4971C7.55303 18.9471 8.16348 19.2 8.8 19.2V17.6ZM16 16.8C16 17.0122 15.9157 17.2157 15.7657 17.3657C15.6157 17.5157 15.4122 17.6 15.2 17.6V19.2C15.8365 19.2 16.447 18.9471 16.8971 18.4971C17.3471 18.047 17.6 17.4365 17.6 16.8H16ZM15.2 11.2C15.4122 11.2 15.6157 11.2843 15.7657 11.4343C15.9157 11.5843 16 11.7878 16 12H17.6C17.6 11.3635 17.3471 10.753 16.8971 10.3029C16.447 9.85286 15.8365 9.6 15.2 9.6V11.2ZM8.8 9.6C8.16348 9.6 7.55303 9.85286 7.10294 10.3029C6.65286 10.753 6.4 11.3635 6.4 12H8C8 11.7878 8.08429 11.5843 8.23431 11.4343C8.38434 11.2843 8.58783 11.2 8.8 11.2V9.6ZM9.6 10.4V8.8H8V10.4H9.6ZM14.4 8.8V10.4H16V8.8H14.4ZM12 6.4C12.6365 6.4 13.247 6.65286 13.6971 7.10294C14.1471 7.55303 14.4 8.16348 14.4 8.8H16C16 7.73913 15.5786 6.72172 14.8284 5.97157C14.0783 5.22143 13.0609 4.8 12 4.8V6.4ZM9.6 8.8C9.6 8.16348 9.85286 7.55303 10.3029 7.10294C10.753 6.65286 11.3635 6.4 12 6.4V4.8C10.9391 4.8 9.92172 5.22143 9.17157 5.97157C8.42143 6.72172 8 7.73913 8 8.8H9.6ZM1.6 12C1.6 9.24175 2.69571 6.59647 4.64609 4.64609C6.59647 2.69571 9.24175 1.6 12 1.6V0C8.8174 0 5.76516 1.26428 3.51472 3.51472C1.26428 5.76516 0 8.8174 0 12H1.6ZM12 22.4C9.24175 22.4 6.59647 21.3043 4.64609 19.3539C2.69571 17.4035 1.6 14.7583 1.6 12H0C0 15.1826 1.26428 18.2348 3.51472 20.4853C5.76516 22.7357 8.8174 24 12 24V22.4ZM22.4 12C22.4 13.3657 22.131 14.7181 21.6083 15.9799C21.0857 17.2417 20.3196 18.3882 19.3539 19.3539C18.3882 20.3196 17.2417 21.0857 15.9799 21.6083C14.7181 22.131 13.3657 22.4 12 22.4V24C15.1826 24 18.2348 22.7357 20.4853 20.4853C22.7357 18.2348 24 15.1826 24 12H22.4ZM24 12C24 8.8174 22.7357 5.76516 20.4853 3.51472C18.2348 1.26428 15.1826 0 12 0V1.6C13.3657 1.6 14.7181 1.869 15.9799 2.39165C17.2417 2.9143 18.3882 3.68036 19.3539 4.64609C20.3196 5.61182 21.0857 6.75831 21.6083 8.02009C22.131 9.28188 22.4 10.6343 22.4 12H24Z" fill="#1E293B" fill-opacity="0.4"/>
</g>
<defs>
<clipPath id="clip0_553_220">
<rect width="24" height="24" fill="white"/>
</clipPath>
</defs>
</svg>
