<svg width="26" height="16" viewBox="0 0 26 16" fill="none" xmlns="http://www.w3.org/2000/svg">
<path d="M13.0012 4.8744C14.4194 4.8744 15.7795 5.46048 16.7823 6.50371C17.7851 7.54694 18.3485 8.96186 18.3485 10.4372C18.3485 11.9125 17.7851 13.3275 16.7823 14.3707C15.7795 15.4139 14.4194 16 13.0012 16C11.583 16 10.2228 15.4139 9.22 14.3707C8.21718 13.3275 7.6538 11.9125 7.6538 10.4372C7.6538 8.96186 8.21718 7.54694 9.22 6.50371C10.2228 5.46048 11.583 4.8744 13.0012 4.8744ZM13.0012 5.21292e-07C19.168 5.21292e-07 24.4927 4.3807 25.9699 10.5193C26.0346 10.7876 25.9942 11.0717 25.8575 11.309C25.7209 11.5463 25.4992 11.7175 25.2413 11.7848C24.9833 11.8521 24.7103 11.8101 24.4821 11.6679C24.254 11.5258 24.0895 11.2952 24.0248 11.0269C23.4058 8.4728 21.985 6.20678 19.9875 4.5881C17.9901 2.96943 15.5304 2.09075 12.9984 2.09139C10.4664 2.09202 8.00714 2.97195 6.01046 4.59163C4.01377 6.21131 2.59399 8.47805 1.97623 11.0324C1.94437 11.1654 1.88764 11.2905 1.8093 11.4006C1.73095 11.5108 1.63251 11.6038 1.51961 11.6744C1.40671 11.745 1.28155 11.7917 1.15128 11.812C1.02101 11.8322 0.888179 11.8256 0.760374 11.7924C0.632569 11.7593 0.512291 11.7003 0.406408 11.6188C0.300525 11.5373 0.211111 11.4349 0.14327 11.3174C0.0754291 11.2 0.0304902 11.0698 0.0110194 10.9343C-0.0084515 10.7987 -0.0020733 10.6606 0.0297902 10.5276C0.754146 7.51956 2.42414 4.84967 4.77438 2.94221C7.12463 1.03475 10.0203 -0.000848225 13.0012 5.21292e-07Z" fill="#1E293B"/>
</svg>
