<svg xmlns="http://www.w3.org/2000/svg" width="14" height="14" fill="none"><path stroke="#1E293B" stroke-linecap="round" stroke-miterlimit="10" stroke-width="1.5" d="M13 7H4.986M2.157 7H1m1.157 0c0-.395.15-.774.414-1.053a1.38 1.38 0 0 1 1-.436c.375 0 .735.157 1 .436.265.28.414.658.414 1.053 0 .394-.149.773-.414 1.052a1.38 1.38 0 0 1-1 .436 1.38 1.38 0 0 1-1-.436A1.53 1.53 0 0 1 2.157 7ZM13 11.51H9.272m0 0c0 .396-.15.775-.415 1.054a1.38 1.38 0 0 1-1 .436 1.38 1.38 0 0 1-1-.437 1.53 1.53 0 0 1-.414-1.052m2.829 0c0-.395-.15-.773-.415-1.053a1.38 1.38 0 0 0-1-.436 1.38 1.38 0 0 0-1 .436 1.53 1.53 0 0 0-.414 1.053m0 0H1m12-9.023h-2.014m-2.829 0H1m7.157 0c0-.394.15-.773.414-1.052a1.38 1.38 0 0 1 1-.436c.186 0 .37.038.541.113.172.075.328.185.46.323.13.138.235.302.306.483a1.558 1.558 0 0 1 0 1.14c-.071.18-.176.344-.307.482a1.412 1.412 0 0 1-.459.323 1.353 1.353 0 0 1-.54.113 1.38 1.38 0 0 1-1-.436 1.53 1.53 0 0 1-.415-1.053Z"/></svg>