<svg xmlns="http://www.w3.org/2000/svg" width="24" height="24" viewBox="0 0 64 64">
  <g stroke="none" stroke-width="4" fill="none" fill-rule="evenodd">
    <g transform="translate(4.000000, 12.000000)" stroke="currentColor" stroke-width="4">
      <path d="M12,32 C12,35.314 9.314,38 6,38 C2.686,38 0,35.314 0,32 C0,28.686 2.686,26 6,26 C9.314,26 12,28.686 12,32 L12,32 Z" stroke-linecap="round" stroke-linejoin="round"/>
      <path d="M54,32 C54,35.314 51.314,38 48,38 C44.686,38 42,35.314 42,32" stroke-linecap="round" stroke-linejoin="round"/>
      <path d="M-0.0004,25.292 C1.5916,23.867 3.6946,23 5.9996,23 C10.9706,23 14.9996,27.029 14.9996,32" stroke-linecap="round" stroke-linejoin="round"/>
      <path d="M15,32 L57,32" stroke-linecap="round" stroke-linejoin="round"/>
      <path d="M57,24 L57,32" stroke-linecap="round" stroke-linejoin="round"/>
      <path d="M58,24 L57,24" stroke-linecap="round" stroke-linejoin="round"/>
      <path d="M58,20 L58,24" stroke-linecap="round" stroke-linejoin="round"/>
      <path d="M57,20 L58,20" stroke-linecap="round" stroke-linejoin="round"/>
      <path d="M57,20 L57,8" stroke-linecap="round" stroke-linejoin="round"/>
      <path d="M8,23 L8,20" stroke-linecap="round" stroke-linejoin="round"/>
      <path d="M4,20 L8,20" stroke-linecap="round" stroke-linejoin="round"/>
      <path d="M4,16 L4,20" stroke-linecap="round" stroke-linejoin="round"/>
      <path d="M6,16 L4,16" stroke-linecap="round" stroke-linejoin="round"/>
      <path d="M17,0 L49,0" stroke-linecap="round" stroke-linejoin="round"/>
      <path d="M6,16 C8.125,8.563 12.062,0.5 17,0" stroke-linecap="round" stroke-linejoin="round"/>
      <path d="M57,8 C57,3.578 53.422,0 49,0" stroke-linecap="round" stroke-linejoin="round"/>
      <path d="M7,13 L13,16" stroke-linecap="round" stroke-linejoin="round"/>
      <path d="M27,16 L13,16" stroke-linecap="round" stroke-linejoin="round"/>
      <path d="M13,2 L16,4" stroke-linecap="round" stroke-linejoin="round"/>
      <path d="M13,16 L16,4" stroke-linecap="round" stroke-linejoin="round"/>
      <path d="M40,4 L16,4" stroke-linecap="round" stroke-linejoin="round"/>
      <path d="M27,29 L27,4" stroke-linecap="round" stroke-linejoin="round"/>
      <path d="M36,29 L27,29" stroke-linecap="round" stroke-linejoin="round"/>
      <path d="M36,23 L36,29" stroke-linecap="round" stroke-linejoin="round"/>
      <path d="M40,19 L36,23" stroke-linecap="round" stroke-linejoin="round"/>
      <path d="M40,4 L40,19" stroke-linecap="round" stroke-linejoin="round"/>
      <path d="M40,19 L57,19" stroke-linecap="round" stroke-linejoin="round"/>
    </g>
  </g>
</svg>
