<svg width="12" height="12" viewBox="0 0 12 12" fill="none" xmlns="http://www.w3.org/2000/svg">
<path d="M1.40673 7.73334L0.773398 10.4667C0.75155 10.5666 0.752299 10.6701 0.77559 10.7697C0.798881 10.8693 0.844126 10.9624 0.908019 11.0423C0.971913 11.1222 1.05284 11.1868 1.14489 11.2313C1.23694 11.2759 1.33779 11.2994 1.44007 11.3C1.4877 11.3052 1.53576 11.3052 1.5834 11.3L4.3334 10.6667L9.6134 5.40667L6.66673 2.46667L1.40673 7.73334Z" fill="#1E293B"/>
<path d="M11.2734 2.77324L9.30671 0.806575C9.17742 0.67793 9.00244 0.605713 8.82005 0.605713C8.63765 0.605713 8.46268 0.67793 8.33338 0.806575L7.24005 1.89991L10.1834 4.84324L11.2767 3.74991C11.3407 3.6856 11.3914 3.60931 11.4258 3.5254C11.4603 3.44148 11.4779 3.3516 11.4776 3.26088C11.4773 3.17017 11.4591 3.08041 11.424 2.99673C11.389 2.91306 11.3378 2.83711 11.2734 2.77324Z" fill="#1E293B"/>
</svg>
