<svg width="20" height="21" viewBox="0 0 20 21" fill="none" xmlns="http://www.w3.org/2000/svg">
<path d="M3.55247 19.67L3.55207 19.6696C3.17233 19.2903 2.95434 18.7766 2.83971 17.9242C2.72316 17.0575 2.7221 15.9186 2.7221 14.3334V9.88899C2.7221 9.16703 2.43531 8.47463 1.92482 7.96411C1.53379 7.57306 1.03603 7.31327 0.5 7.2131V4.8335H19.4991L19.4998 7.21313C18.9639 7.31332 18.4662 7.5731 18.0752 7.96411C17.5647 8.47463 17.2779 9.16703 17.2779 9.88899V14.3334C17.2779 15.9186 17.2768 17.0575 17.1602 17.9241C17.0454 18.7764 16.8272 19.29 16.447 19.6694L16.4464 19.67C16.0671 20.0498 15.5537 20.2677 14.7016 20.3824C13.835 20.4989 12.6962 20.5 11.1105 20.5H8.8884C7.30323 20.5 6.1644 20.4989 5.29774 20.3824C4.44544 20.2677 3.93178 20.0497 3.55247 19.67ZM8.36101 16.5837L8.00745 16.2302L8.36101 16.5837C8.66314 16.2816 8.83287 15.8718 8.83287 15.4445V9.88899C8.83287 9.46171 8.66314 9.05192 8.36101 8.74978C8.05888 8.44764 7.64911 8.27789 7.22182 8.27789C6.79454 8.27789 6.38476 8.44764 6.08263 8.74978C5.7805 9.05192 5.61077 9.46171 5.61077 9.88899V15.4445C5.61077 15.8718 5.7805 16.2816 6.08263 16.5837C6.38476 16.8858 6.79454 17.0556 7.22182 17.0556C7.6491 17.0556 8.05888 16.8858 8.36101 16.5837ZM14.3881 9.88899C14.3881 9.46171 14.2184 9.05192 13.9163 8.74978C13.6141 8.44764 13.2044 8.27789 12.7771 8.27789C12.3498 8.27789 11.94 8.44764 11.6379 8.74978C11.3357 9.05192 11.166 9.46171 11.166 9.88899V15.4445C11.166 15.8718 11.3357 16.2816 11.6379 16.5837C11.94 16.8858 12.3498 17.0556 12.7771 17.0556C13.2044 17.0556 13.6141 16.8858 13.9163 16.5837C14.2184 16.2816 14.3881 15.8718 14.3881 15.4445V9.88899Z" fill="#1E293B" stroke="#1E293B"/>
<path d="M7.85294 1.41128C7.9796 1.2935 8.25847 1.18906 8.64734 1.11462C9.09363 1.03538 9.54622 0.997074 9.99948 1.00017C10.4883 1.00017 10.9639 1.04017 11.3516 1.11462C11.7394 1.18906 12.0183 1.2935 12.146 1.41239" fill="#1E293B"/>
<path d="M7.85294 1.41128C7.9796 1.2935 8.25847 1.18906 8.64734 1.11462C9.09363 1.03538 9.54622 0.997074 9.99948 1.00017C10.4883 1.00017 10.9639 1.04017 11.3516 1.11462C11.7394 1.18906 12.0183 1.2935 12.146 1.41239" stroke="#1E293B" stroke-width="2" stroke-linecap="round"/>
</svg>
